<?xml version="1.0" encoding="UTF-8"?>
<svg id="Layer_14" data-name="Layer 14" xmlns="http://www.w3.org/2000/svg" viewBox="65 0 1155 210">
  <defs>
    <style>
      .cls-1 {
        fill: #c55832;
      }
    </style>
  </defs>
  <path class="cls-1" d="M144.31,105c0-19.09-14.02-33.36-33.48-34.96-1.21-.13-2.43-.21-3.67-.21-1.35,0-2.68.08-3.98.23-19.37,1.73-33.17,16.03-33.17,34.94s13.8,33.21,33.17,34.94c1.31.15,2.64.23,3.98.23,1.46,0,2.89-.1,4.3-.27,19.13-1.85,32.85-16.02,32.85-34.9ZM107.15,126.73c-12.13,0-21.24-8.83-21.24-21.73s9.12-21.73,21.24-21.73c2.39,0,4.65.35,6.76,1-4.25,5.81-6.76,12.97-6.76,20.72v21.73h0Z"/>
  <path class="cls-1" d="M221.02,95.67c0,15.16-11.37,24.58-29.54,24.58h-13.7v18.75h-15.74v-68.01h29.44c18.17,0,29.54,9.42,29.54,24.68ZM205.08,95.67c0-7.48-4.86-11.85-14.48-11.85h-12.82v23.61h12.82c9.62,0,14.48-4.37,14.48-11.76Z"/>
  <path class="cls-1" d="M291.65,126.37v12.63h-52.66v-68.01h51.4v12.63h-35.75v14.77h31.58v12.24h-31.58v15.74h37.02Z"/>
  <path class="cls-1" d="M372.38,71v68.01h-12.92l-33.91-41.29v41.29h-15.54v-68.01h13.02l33.81,41.29v-41.29h15.54Z"/>
  <path class="cls-1" d="M427.66,71h30.9c22.25,0,37.5,13.41,37.5,34s-15.25,34-37.5,34h-30.9v-68.01ZM457.78,126.08c13.5,0,22.35-8.06,22.35-21.08s-8.84-21.08-22.35-21.08h-14.38v42.17h14.38Z"/>
  <path class="cls-1" d="M509.47,105c0-20.21,15.74-35.17,37.21-35.17s37.21,14.86,37.21,35.17-15.84,35.17-37.21,35.17-37.21-14.96-37.21-35.17ZM567.95,105c0-12.92-9.13-21.76-21.28-21.76s-21.28,8.84-21.28,21.76,9.13,21.76,21.28,21.76,21.28-8.84,21.28-21.76Z"/>
  <path class="cls-1" d="M597.29,105c0-20.21,15.74-35.17,37.21-35.17s37.21,14.86,37.21,35.17-15.84,35.17-37.21,35.17-37.21-14.96-37.21-35.17ZM655.78,105c0-12.92-9.13-21.76-21.28-21.76s-21.28,8.84-21.28,21.76,9.13,21.76,21.28,21.76,21.28-8.84,21.28-21.76Z"/>
  <path class="cls-1" d="M732.73,139l-13.12-18.95h-14.48v18.95h-15.74v-68.01h29.44c18.17,0,29.54,9.42,29.54,24.68,0,10.2-5.15,17.68-13.99,21.47l15.25,21.86h-16.91ZM717.96,83.82h-12.82v23.71h12.82c9.62,0,14.48-4.47,14.48-11.85s-4.86-11.85-14.48-11.85Z"/>
  <path class="cls-1" d="M868.06,139l-.1-58.2-28.47,49.16h-2.43l-28.47-48.97v58h-4.86v-68.01h4.18l30.41,52.56,30.41-52.56h4.08l.1,68.01h-4.86Z"/>
  <path class="cls-1" d="M949.38,134.54v4.47h-46.93v-68.01h45.47v4.47h-40.51v26.81h36.24v4.37h-36.24v27.88h41.97Z"/>
  <path class="cls-1" d="M973.28,71h26.91c21.57,0,36.14,14.18,36.14,34s-14.57,34-36.14,34h-26.91v-68.01ZM999.8,134.54c19.24,0,31.58-12.24,31.58-29.54s-12.34-29.54-31.58-29.54h-21.57v59.07h21.57Z"/>
  <path class="cls-1" d="M1059.35,71h4.96v68.01h-4.96v-68.01Z"/>
  <path class="cls-1" d="M1135.91,119.86h-39.44l-8.65,19.14h-5.34l31.28-68.01h4.95l31.28,68.01h-5.34l-8.74-19.14ZM1134.07,115.69l-17.88-39.25-17.78,39.25h35.66Z"/>
</svg>