<?xml version="1.0" encoding="UTF-8"?>
<svg id="Layer_14" data-name="Layer 14" xmlns="http://www.w3.org/2000/svg" viewBox="0 0 2400 1100">
  <defs>
    <style>
      .cls-1 {
        fill: #89abab;
      }

      .cls-2 {
        fill: #c55832;
      }
    </style>
  </defs>
  <g>
    <path class="cls-1" d="M1325.77,550v441.94H441.92c137.25,0,259.87-62.58,340.89-160.73h382.22v-281.21c0-75.11-29.24-145.71-82.37-198.84-53.1-53.1-123.73-82.37-198.84-82.37-30.91,0-61.06,4.95-89.54,14.52-35.54-46.92-80.23-86.5-131.43-116.12,65.01-37.61,140.47-59.13,220.97-59.13,244.06,0,441.94,197.87,441.94,441.94Z"/>
    <path class="cls-2" d="M794.3,283.31c-35.54-46.92-80.25-86.48-131.43-116.11-65.01-37.59-140.46-59.11-220.94-59.11C197.84,108.09,0,305.93,0,550s197.84,441.93,441.93,441.93c137.23,0,259.85-62.56,340.88-160.71,63.11-76.45,101.02-174.42,101.02-281.23,0-100.2-33.36-192.56-89.54-266.69ZM441.93,550v281.23c-75.12,0-145.74-29.28-198.84-82.38-53.13-53.13-82.38-123.72-82.38-198.85s29.28-145.72,82.35-198.84c53.15-53.08,123.72-82.35,198.84-82.35,30.93,0,61.06,4.95,89.54,14.51-56.18,74.12-89.51,166.51-89.51,266.69Z"/>
  </g>
  <g>
    <path class="cls-2" d="M1911.19,290.35c0,43.33-32.5,70.28-84.45,70.28h-39.17v53.61h-45v-194.45h84.17c51.95,0,84.45,26.95,84.45,70.56ZM1865.64,290.35c0-21.39-13.89-33.89-41.39-33.89h-36.67v67.5h36.67c27.5,0,41.39-12.5,41.39-33.61Z"/>
    <path class="cls-2" d="M2130.59,378.13v36.11h-150.56v-194.45h146.95v36.11h-102.23v42.22h90.28v35h-90.28v45h105.84Z"/>
    <path class="cls-2" d="M2381.97,219.79v194.45h-36.95l-96.95-118.06v118.06h-44.45v-194.45h37.22l96.67,118.06v-118.06h44.45Z"/>
    <path class="cls-2" d="M1471.71,474.09h88.34c63.61,0,107.23,38.34,107.23,97.23s-43.61,97.23-107.23,97.23h-88.34v-194.45ZM1557.82,631.6c38.61,0,63.89-23.06,63.89-60.28s-25.28-60.28-63.89-60.28h-41.11v120.56h41.11Z"/>
    <path class="cls-2" d="M1706.42,571.32c0-57.78,45-100.56,106.39-100.56s106.39,42.5,106.39,100.56-45.28,100.56-106.39,100.56-106.39-42.78-106.39-100.56ZM1873.65,571.32c0-36.95-26.11-62.22-60.84-62.22s-60.84,25.28-60.84,62.22,26.11,62.22,60.84,62.22,60.84-25.28,60.84-62.22Z"/>
    <path class="cls-2" d="M1958.36,571.32c0-57.78,45-100.56,106.39-100.56s106.39,42.5,106.39,100.56-45.28,100.56-106.39,100.56-106.39-42.78-106.39-100.56ZM2125.59,571.32c0-36.95-26.11-62.22-60.84-62.22s-60.84,25.28-60.84,62.22,26.11,62.22,60.84,62.22,60.84-25.28,60.84-62.22Z"/>
    <path class="cls-2" d="M2343.64,668.54l-37.5-54.17h-41.39v54.17h-45v-194.45h84.17c51.95,0,84.45,26.95,84.45,70.56,0,29.17-14.72,50.56-40,61.39l43.61,62.5h-48.34ZM2301.41,510.76h-36.67v67.78h36.67c27.5,0,41.39-12.78,41.39-33.89s-13.89-33.89-41.39-33.89Z"/>
    <path class="cls-2" d="M1668.68,741.31v184.3h-18.69v-147.44l-72.4,124.01h-9.22l-72.4-123.22v146.65h-18.69v-184.3h16.06l80.04,136.64,79.25-136.64h16.06Z"/>
    <path class="cls-2" d="M1869.01,908.76v16.85h-130.32v-184.3h126.37v16.85h-106.89v65.56h95.31v16.59h-95.31v68.45h110.84Z"/>
    <path class="cls-2" d="M1924.81,741.31h75.04c58.97,0,98.73,37.91,98.73,92.15s-39.76,92.15-98.73,92.15h-75.04v-184.3ZM1998.79,908.76c48.97,0,80.56-31.07,80.56-75.3s-31.59-75.3-80.56-75.3h-54.5v150.6h54.5Z"/>
    <path class="cls-2" d="M2152.26,741.31h19.48v184.3h-19.48v-184.3Z"/>
    <path class="cls-2" d="M2357.35,876.37h-102.68l-22.12,49.23h-20.27l84.25-184.3h19.22l84.25,184.3h-20.54l-22.11-49.23ZM2350.24,860.58l-44.23-98.99-44.23,98.99h88.46Z"/>
    <path class="cls-2" d="M1673.98,317.01c0-54.67-40.16-95.54-95.87-100.12-3.46-.36-6.96-.6-10.52-.6-3.86,0-7.66.24-11.41.66-55.48,4.95-94.99,45.92-94.99,100.05s39.51,95.1,94.99,100.05c3.75.42,7.55.66,11.41.66,4.17,0,8.27-.27,12.31-.76,54.78-5.31,94.08-45.87,94.08-99.95ZM1567.59,379.24c-34.72,0-60.83-25.28-60.83-62.22s26.11-62.22,60.83-62.22c6.84,0,13.33,1.01,19.36,2.87-12.16,16.65-19.36,37.15-19.36,59.35v62.23h0Z"/>
  </g>
</svg>