<?xml version="1.0" encoding="UTF-8"?>
<svg id="Layer_14" data-name="Layer 14" xmlns="http://www.w3.org/2000/svg" viewBox="136 0 950 210">
  <defs>
    <style>
      .cls-1 {
        fill: #c55832;
      }
    </style>
  </defs>
  <g>
    <path class="cls-1" d="M468.24,105c0-19.09-14.02-33.36-33.48-34.96-1.21-.13-2.43-.21-3.67-.21-1.35,0-2.68.08-3.98.23-19.37,1.73-33.17,16.03-33.17,34.94s13.8,33.21,33.17,34.94c1.31.15,2.64.23,3.98.23,1.46,0,2.89-.1,4.3-.27,19.13-1.85,32.85-16.02,32.85-34.9ZM431.08,126.73c-12.13,0-21.24-8.83-21.24-21.73s9.12-21.73,21.24-21.73c2.39,0,4.65.35,6.76,1-4.25,5.81-6.76,12.97-6.76,20.72v21.73h0Z"/>
    <path class="cls-1" d="M544.95,95.67c0,15.16-11.37,24.58-29.54,24.58h-13.7v18.75h-15.74v-68.01h29.44c18.17,0,29.54,9.42,29.54,24.68ZM529.01,95.67c0-7.48-4.86-11.85-14.48-11.85h-12.82v23.61h12.82c9.62,0,14.48-4.37,14.48-11.76Z"/>
    <path class="cls-1" d="M615.58,126.37v12.63h-52.66v-68.01h51.4v12.63h-35.75v14.77h31.58v12.24h-31.58v15.74h37.02Z"/>
    <path class="cls-1" d="M696.31,71v68.01h-12.92l-33.91-41.29v41.29h-15.54v-68.01h13.02l33.81,41.29v-41.29h15.54Z"/>
    <path class="cls-1" d="M751.59,71h30.9c22.25,0,37.5,13.41,37.5,34s-15.25,34-37.5,34h-30.9v-68.01ZM781.71,126.08c13.5,0,22.35-8.06,22.35-21.08s-8.84-21.08-22.35-21.08h-14.38v42.17h14.38Z"/>
    <path class="cls-1" d="M833.4,105c0-20.21,15.74-35.17,37.21-35.17s37.21,14.86,37.21,35.17-15.84,35.17-37.21,35.17-37.21-14.96-37.21-35.17ZM891.88,105c0-12.92-9.13-21.76-21.28-21.76s-21.28,8.84-21.28,21.76,9.13,21.76,21.28,21.76,21.28-8.84,21.28-21.76Z"/>
    <path class="cls-1" d="M921.22,105c0-20.21,15.74-35.17,37.21-35.17s37.21,14.86,37.21,35.17-15.84,35.17-37.21,35.17-37.21-14.96-37.21-35.17ZM979.71,105c0-12.92-9.13-21.76-21.28-21.76s-21.28,8.84-21.28,21.76,9.13,21.76,21.28,21.76,21.28-8.84,21.28-21.76Z"/>
    <path class="cls-1" d="M1056.66,139l-13.12-18.95h-14.48v18.95h-15.74v-68.01h29.44c18.17,0,29.54,9.42,29.54,24.68,0,10.2-5.15,17.68-13.99,21.47l15.25,21.86h-16.91ZM1041.89,83.82h-12.82v23.71h12.82c9.62,0,14.48-4.47,14.48-11.85s-4.86-11.85-14.48-11.85Z"/>
  </g>
  <g>
    <path class="cls-1" d="M170.91,75.46h-24.47v-4.47h53.89v4.47h-24.47v63.51h-4.95v-63.51Z"/>
    <path class="cls-1" d="M267.92,70.99v67.98h-4.95v-32.34h-45.45v32.34h-4.95v-67.98h4.95v31.27h45.45v-31.27h4.95Z"/>
    <path class="cls-1" d="M338.51,134.5v4.47h-46.9v-67.98h45.45v4.47h-40.49v26.8h36.22v4.37h-36.22v27.87h41.95Z"/>
  </g>
</svg>